<svg xmlns="http://www.w3.org/2000/svg" width="500" height="500" viewBox="0 0 500 500">
  <defs>
    <linearGradient id="grad1" x1="0%" y1="100%" x2="100%" y2="0%">
      <stop offset="0%" style="stop-color:#673AB7;stop-opacity:1" />
      <stop offset="100%" style="stop-color:#2196F3;stop-opacity:1" />
    </linearGradient>
  </defs>
  <g transform="translate(125, 100)">
    <path d="M 60 200 C 30 200 10 180 10 150 L 10 100 C 10 40 50 10 110 10 L 200 10 C 230 10 250 30 250 60 C 250 90 230 110 200 110 L 110 110 C 80 110 60 130 60 160 L 60 160 L 160 160 C 190 160 210 180 210 210 C 210 240 190 260 160 260 L 110 260 C 50 260 10 230 10 170" 
          stroke="url(#grad1)" stroke-width="20" fill="none" stroke-linecap="round" stroke-linejoin="round"/>
    <text x="125" y="360" font-family="'Montserrat', sans-serif" font-size="80" font-weight="bold" fill="url(#grad1)" text-anchor="middle">Fidelio</text>
  </g>
</svg>